<svg width="19" height="20" viewBox="0 0 19 20" fill="none" xmlns="http://www.w3.org/2000/svg">
<path fill-rule="evenodd" clip-rule="evenodd" d="M18.0583 14.5127C17.7337 15.508 17.2218 16.5034 16.5227 17.4988C15.449 19.0596 14.3794 19.8399 13.3141 19.8399C12.9062 19.8399 12.3236 19.7125 11.5662 19.4577C10.8504 19.2029 10.222 19.0755 9.68101 19.0755C9.17329 19.0755 8.58235 19.2069 7.90817 19.4697C7.23399 19.7404 6.68466 19.8758 6.26018 19.8758C4.99505 19.8758 3.74241 18.8446 2.50226 16.7821C1.27875 14.7038 0.666992 12.7011 0.666992 10.774C0.666992 8.95843 1.13725 7.46934 2.07777 6.30674C3.00997 5.16006 4.19186 4.58672 5.62345 4.58672C6.22272 4.58672 6.95932 4.70616 7.83326 4.94506C8.69887 5.18395 9.27317 5.30339 9.55616 5.30339C9.9307 5.30339 10.5258 5.16802 11.3415 4.89728C12.1904 4.62653 12.9104 4.49116 13.5014 4.49116C14.4918 4.49116 15.3782 4.74996 16.1606 5.26756C16.5934 5.55423 17.0262 5.95238 17.459 6.46202C16.8015 6.99554 16.3271 7.46536 16.0358 7.87148C15.4948 8.62 15.2243 9.44418 15.2243 10.344C15.2243 11.3314 15.5114 12.2193 16.0857 13.0076C16.66 13.796 17.3175 14.2977 18.0583 14.5127ZM13.364 0.501672C13.364 0.987418 13.2433 1.52891 13.002 2.12613C12.7523 2.72336 12.3652 3.27281 11.8409 3.77449C11.3914 4.20449 10.942 4.49116 10.4925 4.6345C10.1846 4.72209 9.75175 4.78978 9.1941 4.83755C9.21907 3.65106 9.54368 2.62781 10.1679 1.7678C10.7838 0.915751 11.8242 0.326485 13.2891 0C13.2974 0.0238892 13.3078 0.0676859 13.3203 0.13139C13.3328 0.195095 13.3432 0.238892 13.3515 0.262781C13.3515 0.294633 13.3536 0.334448 13.3578 0.382226C13.3619 0.430005 13.364 0.46982 13.364 0.501672Z" fill="white"/>
</svg>
