<svg width="19" height="21" viewBox="0 0 19 21" fill="none" xmlns="http://www.w3.org/2000/svg">
<path d="M9.49998 0.5C7.51085 0.5 5.6032 1.29018 4.19668 2.6967C2.79015 4.10322 1.99998 6.01088 1.99998 8V12.4825L1.11623 13.3663C0.941466 13.5411 0.822458 13.7638 0.774248 14.0062C0.726039 14.2487 0.750793 14.4999 0.84538 14.7283C0.939968 14.9567 1.10014 15.1519 1.30565 15.2893C1.51117 15.4266 1.75279 15.4999 1.99998 15.5H17C17.2472 15.4999 17.4888 15.4266 17.6943 15.2893C17.8998 15.1519 18.06 14.9567 18.1546 14.7283C18.2492 14.4999 18.2739 14.2487 18.2257 14.0062C18.1775 13.7638 18.0585 13.5411 17.8837 13.3663L17 12.4825V8C17 6.01088 16.2098 4.10322 14.8033 2.6967C13.3968 1.29018 11.4891 0.5 9.49998 0.5ZM9.49998 20.5C8.50542 20.5 7.55159 20.1049 6.84833 19.4017C6.14507 18.6984 5.74998 17.7446 5.74998 16.75H13.25C13.25 17.7446 12.8549 18.6984 12.1516 19.4017C11.4484 20.1049 10.4945 20.5 9.49998 20.5Z" fill="white"/>
</svg>
