<svg width="18" height="20" viewBox="0 0 18 20" fill="none" xmlns="http://www.w3.org/2000/svg">
<path fill-rule="evenodd" clip-rule="evenodd" d="M1.79998 2.79999C1.79998 2.16347 2.05283 1.55302 2.50292 1.10294C2.95301 0.65285 3.56346 0.399994 4.19998 0.399994H13.8C14.4365 0.399994 15.0469 0.65285 15.497 1.10294C15.9471 1.55302 16.2 2.16347 16.2 2.79999V17.2C16.5182 17.2 16.8235 17.3264 17.0485 17.5515C17.2735 17.7765 17.4 18.0817 17.4 18.4C17.4 18.7183 17.2735 19.0235 17.0485 19.2485C16.8235 19.4736 16.5182 19.6 16.2 19.6H12.6C12.2817 19.6 11.9765 19.4736 11.7514 19.2485C11.5264 19.0235 11.4 18.7183 11.4 18.4V16C11.4 15.6817 11.2735 15.3765 11.0485 15.1515C10.8235 14.9264 10.5182 14.8 10.2 14.8H7.79998C7.48172 14.8 7.17649 14.9264 6.95145 15.1515C6.7264 15.3765 6.59998 15.6817 6.59998 16V18.4C6.59998 18.7183 6.47355 19.0235 6.2485 19.2485C6.02346 19.4736 5.71824 19.6 5.39998 19.6H1.79998C1.48172 19.6 1.17649 19.4736 0.951447 19.2485C0.726404 19.0235 0.599976 18.7183 0.599976 18.4C0.599976 18.0817 0.726404 17.7765 0.951447 17.5515C1.17649 17.3264 1.48172 17.2 1.79998 17.2V2.79999ZM5.39998 3.99999H7.79998V6.39999H5.39998V3.99999ZM7.79998 8.79999H5.39998V11.2H7.79998V8.79999ZM10.2 3.99999H12.6V6.39999H10.2V3.99999ZM12.6 8.79999H10.2V11.2H12.6V8.79999Z" fill="#32DED4"/>
</svg>
