<svg width="20" height="21" viewBox="0 0 20 21" fill="none" xmlns="http://www.w3.org/2000/svg">
<path d="M1.60002 0.199951C1.28176 0.199951 0.97654 0.326379 0.751496 0.551423C0.526453 0.776467 0.400024 1.08169 0.400024 1.39995C0.400024 1.71821 0.526453 2.02344 0.751496 2.24848C0.97654 2.47352 1.28176 2.59995 1.60002 2.59995H3.06402L3.43002 4.06635C3.43366 4.08324 3.43766 4.10004 3.44202 4.11675L5.07162 10.6328L4.00002 11.7032C2.48802 13.2152 3.55842 15.8 5.69682 15.8H16C16.3183 15.8 16.6235 15.6735 16.8486 15.4485C17.0736 15.2234 17.2 14.9182 17.2 14.6C17.2 14.2817 17.0736 13.9765 16.8486 13.7514C16.6235 13.5264 16.3183 13.4 16 13.4H5.69682L6.89682 12.2H14.8C15.0228 12.1998 15.2412 12.1377 15.4307 12.0205C15.6201 11.9033 15.7732 11.7356 15.8728 11.5364L19.4728 4.33635C19.5642 4.15345 19.6074 3.95022 19.5982 3.74596C19.589 3.5417 19.5277 3.34317 19.4203 3.16922C19.3128 2.99528 19.1627 2.85167 18.9841 2.75204C18.8055 2.65241 18.6045 2.60006 18.4 2.59995H5.53603L5.16402 1.10835C5.09902 0.848855 4.94917 0.618521 4.73827 0.453938C4.52738 0.289354 4.26754 0.199958 4.00002 0.199951H1.60002ZM17.2 18.7999C17.2 19.2773 17.0104 19.7352 16.6728 20.0727C16.3353 20.4103 15.8774 20.6 15.4 20.6C14.9226 20.6 14.4648 20.4103 14.1272 20.0727C13.7897 19.7352 13.6 19.2773 13.6 18.7999C13.6 18.3226 13.7897 17.8647 14.1272 17.5272C14.4648 17.1896 14.9226 17 15.4 17C15.8774 17 16.3353 17.1896 16.6728 17.5272C17.0104 17.8647 17.2 18.3226 17.2 18.7999ZM5.80002 20.6C6.27741 20.6 6.73525 20.4103 7.07282 20.0727C7.41038 19.7352 7.60002 19.2773 7.60002 18.7999C7.60002 18.3226 7.41038 17.8647 7.07282 17.5272C6.73525 17.1896 6.27741 17 5.80002 17C5.32263 17 4.8648 17.1896 4.52723 17.5272C4.18967 17.8647 4.00002 18.3226 4.00002 18.7999C4.00002 19.2773 4.18967 19.7352 4.52723 20.0727C4.8648 20.4103 5.32263 20.6 5.80002 20.6Z" fill="white"/>
</svg>
