<svg width="11" height="7" viewBox="0 0 11 7" fill="none" xmlns="http://www.w3.org/2000/svg">
<path fill-rule="evenodd" clip-rule="evenodd" d="M0.293031 1.29301C0.480558 1.10553 0.734866 1.00022 1.00003 1.00022C1.26519 1.00022 1.5195 1.10553 1.70703 1.29301L5.00003 4.58601L8.29303 1.29301C8.38528 1.19749 8.49562 1.12131 8.61763 1.0689C8.73963 1.01649 8.87085 0.988908 9.00363 0.987754C9.13641 0.986601 9.26809 1.0119 9.39098 1.06218C9.51388 1.11246 9.62553 1.18672 9.71943 1.28061C9.81332 1.3745 9.88757 1.48615 9.93785 1.60905C9.98813 1.73195 10.0134 1.86363 10.0123 1.99641C10.0111 2.12919 9.98354 2.26041 9.93113 2.38241C9.87872 2.50441 9.80254 2.61476 9.70703 2.707L5.70703 6.707C5.5195 6.89448 5.26519 6.99979 5.00003 6.99979C4.73487 6.99979 4.48056 6.89448 4.29303 6.707L0.293031 2.707C0.10556 2.51948 0.000244141 2.26517 0.000244141 2C0.000244141 1.73484 0.10556 1.48053 0.293031 1.29301Z" fill="black"/>
</svg>
