<svg width="20" height="20" viewBox="0 0 20 20" fill="none" xmlns="http://www.w3.org/2000/svg">
<path fill-rule="evenodd" clip-rule="evenodd" d="M1.52802 5.6944C1.18284 5.91013 0.898207 6.21012 0.70088 6.56615C0.503554 6.92218 0.400023 7.32254 0.400024 7.7296V17.2C0.400024 17.8365 0.652881 18.447 1.10297 18.8971C1.55306 19.3471 2.1635 19.6 2.80002 19.6H17.2C17.8365 19.6 18.447 19.3471 18.8971 18.8971C19.3472 18.447 19.6 17.8365 19.6 17.2V7.7296C19.6 7.32254 19.4965 6.92218 19.2992 6.56615C19.1018 6.21012 18.8172 5.91013 18.472 5.6944L11.272 1.1944C10.8906 0.955997 10.4498 0.82959 10 0.82959C9.55022 0.82959 9.10946 0.955997 8.72802 1.1944L1.52802 5.6944ZM4.66602 8.602C4.53491 8.51454 4.38786 8.45376 4.23326 8.42313C4.07866 8.3925 3.91954 8.39262 3.76498 8.42349C3.61043 8.45435 3.46347 8.51536 3.33249 8.60302C3.20151 8.69068 3.08909 8.80328 3.00162 8.9344C2.91416 9.06551 2.85338 9.21256 2.82276 9.36716C2.79213 9.52176 2.79225 9.68088 2.82312 9.83544C2.88545 10.1476 3.06923 10.4222 3.33402 10.5988L9.33402 14.5984C9.53122 14.73 9.76297 14.8002 10 14.8002C10.2371 14.8002 10.4688 14.73 10.666 14.5984L16.666 10.5988C16.9308 10.4222 17.1146 10.1476 17.1769 9.83544C17.2393 9.5233 17.1751 9.19919 16.9984 8.9344C16.8218 8.6696 16.5472 8.48582 16.2351 8.42349C15.9229 8.36115 15.5988 8.42536 15.334 8.602L10 12.1576L4.66602 8.602Z" fill="#32DED4"/>
</svg>
