<svg width="20" height="20" viewBox="0 0 20 20" fill="none" xmlns="http://www.w3.org/2000/svg">
<path fill-rule="evenodd" clip-rule="evenodd" d="M3.70741 2.29304C3.5188 2.11088 3.2662 2.01009 3.00401 2.01237C2.74181 2.01465 2.491 2.11981 2.30559 2.30522C2.12018 2.49063 2.01501 2.74144 2.01273 3.00364C2.01045 3.26584 2.11125 3.51844 2.29341 3.70704L16.2934 17.707C16.482 17.8892 16.7346 17.99 16.9968 17.9877C17.259 17.9854 17.5098 17.8803 17.6952 17.6949C17.8806 17.5095 17.9858 17.2586 17.9881 16.9964C17.9904 16.7342 17.8896 16.4816 17.7074 16.293L16.2344 14.82C17.7919 13.5782 18.9437 11.9 19.5424 10C18.2684 5.94304 14.4784 3.00004 10.0004 3.00004C8.43284 2.99792 6.88691 3.3659 5.48841 4.07404L3.70741 2.29304ZM7.96841 6.55304L9.48241 8.06804C9.8215 7.97799 10.1783 7.97859 10.5171 8.06977C10.8559 8.16095 11.1648 8.33952 11.4128 8.58761C11.6609 8.83569 11.8395 9.14458 11.9307 9.48337C12.0219 9.82216 12.0225 10.179 11.9324 10.518L13.4464 12.032C13.8974 11.2681 14.0816 10.3758 13.9701 9.49572C13.8585 8.6156 13.4575 7.79754 12.8302 7.17022C12.2029 6.5429 11.3848 6.14193 10.5047 6.03039C9.62461 5.91885 8.73239 6.10206 7.96841 6.55304Z" fill="#32DED4"/>
<path d="M12.454 16.697L9.75001 13.992C8.77769 13.9311 7.86103 13.5174 7.17206 12.8286C6.4831 12.1398 6.06918 11.2233 6.00801 10.251L2.33501 6.578C1.49022 7.58402 0.852357 8.74692 0.458008 10C1.73201 14.057 5.52301 17 10 17C10.847 17 11.669 16.895 12.454 16.697Z" fill="#32DED4"/>
</svg>
