<svg width="20" height="20" viewBox="0 0 20 20" fill="none" xmlns="http://www.w3.org/2000/svg">
<path d="M18.7497 6.75L16.6663 7.89583L14.583 9.875V16.6667H17.4997C18.1901 16.6667 18.7497 16.1071 18.7497 15.4167V6.75Z" fill="white"/>
<path d="M1.25 6.75L2.75583 7.4625L5.41667 9.875V16.6667H2.5C1.80958 16.6667 1.25 16.1071 1.25 15.4167V6.75Z" fill="white"/>
<path d="M14.5833 4.66669L10 8.10419L5.41667 4.66669L5 7.08335L5.41667 9.87502L10 13.3125L14.5833 9.87502L15 7.08335L14.5833 4.66669Z" fill="white"/>
<path d="M1.25 5.12415V6.74998L5.41667 9.87498V4.66665L4.115 3.69123C3.805 3.45873 3.42833 3.33331 3.04083 3.33331C2.05167 3.33331 1.25 4.13498 1.25 5.12415Z" fill="white"/>
<path d="M18.7497 5.12415V6.74998L14.583 9.87498V4.66665L15.8847 3.69123C16.1947 3.45873 16.5713 3.33331 16.9588 3.33331C17.948 3.33331 18.7497 4.13498 18.7497 5.12415Z" fill="white"/>
</svg>
