<svg width="17" height="14" viewBox="0 0 17 14" fill="none" xmlns="http://www.w3.org/2000/svg">
<path fill-rule="evenodd" clip-rule="evenodd" d="M8.20703 13.707C8.0195 13.8945 7.76519 13.9998 7.50003 13.9998C7.23487 13.9998 6.98056 13.8945 6.79303 13.707L0.793031 7.70701C0.605559 7.51948 0.500244 7.26517 0.500244 7.00001C0.500244 6.73485 0.605559 6.48054 0.793031 6.29301L6.79303 0.29301C6.98163 0.110852 7.23423 0.010058 7.49643 0.0123364C7.75863 0.0146148 8.00944 0.119784 8.19485 0.305192C8.38026 0.4906 8.48543 0.741412 8.4877 1.00361C8.48998 1.26581 8.38919 1.51841 8.20703 1.70701L3.91403 6.00001H15.5C15.7652 6.00001 16.0196 6.10537 16.2071 6.2929C16.3947 6.48044 16.5 6.73479 16.5 7.00001C16.5 7.26523 16.3947 7.51958 16.2071 7.70712C16.0196 7.89465 15.7652 8.00001 15.5 8.00001H3.91403L8.20703 12.293C8.3945 12.4805 8.49982 12.7348 8.49982 13C8.49982 13.2652 8.3945 13.5195 8.20703 13.707Z" fill="black"/>
</svg>
