<svg width="16" height="16" viewBox="0 0 16 16" fill="none" xmlns="http://www.w3.org/2000/svg">
<path d="M1.33331 1.33332V5.49999H1.81831M1.81831 5.49999C2.37152 4.13176 3.36305 2.98575 4.6375 2.24154C5.91196 1.49734 7.39732 1.197 8.86079 1.38761C10.3243 1.57821 11.6831 2.24899 12.7245 3.2948C13.7658 4.34062 14.4307 5.70238 14.615 7.16666M1.81831 5.49999H5.49998M14.6666 14.6667V10.5H14.1825M14.1825 10.5C13.6285 11.8674 12.6367 13.0125 11.3623 13.7561C10.088 14.4996 8.60309 14.7996 7.14006 14.6091C5.67703 14.4185 4.31848 13.7482 3.27709 12.7031C2.2357 11.658 1.57028 10.297 1.38498 8.83332M14.1825 10.5H10.5" stroke="white" stroke-width="2" stroke-linecap="round" stroke-linejoin="round"/>
</svg>
