<svg width="20" height="20" viewBox="0 0 20 20" fill="none" xmlns="http://www.w3.org/2000/svg">
<path fill-rule="evenodd" clip-rule="evenodd" d="M19.5999 10C19.5999 12.5461 18.5885 14.9879 16.7881 16.7882C14.9878 18.5886 12.546 19.6 9.9999 19.6C7.45382 19.6 5.01203 18.5886 3.21168 16.7882C1.41133 14.9879 0.399902 12.5461 0.399902 10C0.399902 7.45392 1.41133 5.01213 3.21168 3.21178C5.01203 1.41143 7.45382 0.400002 9.9999 0.400002C12.546 0.400002 14.9878 1.41143 16.7881 3.21178C18.5885 5.01213 19.5999 7.45392 19.5999 10ZM12.3999 6.4C12.3999 7.03652 12.147 7.64697 11.697 8.09706C11.2469 8.54714 10.6364 8.8 9.9999 8.8C9.36338 8.8 8.75293 8.54714 8.30285 8.09706C7.85276 7.64697 7.5999 7.03652 7.5999 6.4C7.5999 5.76348 7.85276 5.15303 8.30285 4.70295C8.75293 4.25286 9.36338 4 9.9999 4C10.6364 4 11.2469 4.25286 11.697 4.70295C12.147 5.15303 12.3999 5.76348 12.3999 6.4ZM9.9999 11.2C8.85102 11.1998 7.72623 11.5294 6.7592 12.1497C5.79217 12.77 5.02355 13.6549 4.5447 14.6992C5.21991 15.4847 6.05703 16.1149 6.99864 16.5466C7.94024 16.9782 8.96407 17.2011 9.9999 17.2C11.0357 17.2011 12.0596 16.9782 13.0012 16.5466C13.9428 16.1149 14.7799 15.4847 15.4551 14.6992C14.9763 13.6549 14.2076 12.77 13.2406 12.1497C12.2736 11.5294 11.1488 11.1998 9.9999 11.2Z" fill="#32DED4"/>
</svg>
