<svg width="20" height="22" viewBox="0 0 20 22" fill="none" xmlns="http://www.w3.org/2000/svg">
<path fill-rule="evenodd" clip-rule="evenodd" d="M12.0004 9C11.7352 9 11.4808 8.89464 11.2933 8.70711C11.1058 8.51957 11.0004 8.26522 11.0004 8C11.0004 7.73478 11.1058 7.48043 11.2933 7.29289C11.4808 7.10536 11.7352 7 12.0004 7H17.0004C17.2656 7 17.52 7.10536 17.7075 7.29289C17.8951 7.48043 18.0004 7.73478 18.0004 8V13C18.0004 13.2652 17.8951 13.5196 17.7075 13.7071C17.52 13.8946 17.2656 14 17.0004 14C16.7352 14 16.4808 13.8946 16.2933 13.7071C16.1058 13.5196 16.0004 13.2652 16.0004 13V10.414L11.7074 14.707C11.5199 14.8945 11.2656 14.9998 11.0004 14.9998C10.7352 14.9998 10.4809 14.8945 10.2934 14.707L8.00041 12.414L3.70741 16.707C3.5188 16.8892 3.2662 16.99 3.00401 16.9877C2.74181 16.9854 2.491 16.8802 2.30559 16.6948C2.12018 16.5094 2.01501 16.2586 2.01273 15.9964C2.01045 15.7342 2.11125 15.4816 2.29341 15.293L7.29341 10.293C7.48094 10.1055 7.73524 10.0002 8.00041 10.0002C8.26557 10.0002 8.51988 10.1055 8.70741 10.293L11.0004 12.586L14.5864 9H12.0004Z" fill="#32DED4"/>
</svg>
