<svg width="24" height="24" viewBox="0 0 24 24" fill="none" xmlns="http://www.w3.org/2000/svg">
<path fill-rule="evenodd" clip-rule="evenodd" d="M15.0092 4.91166L14.54 4L12.7164 4.91166H4.4575C3.65593 4.91166 3 5.55807 3 6.34794V11.0189C3 11.8217 3.66654 12.4787 4.48096 12.4787H7.66619V15.306L4.48096 15.3058C3.66654 15.3058 3 14.6489 3 13.8463V18.5405C3 19.343 3.66654 20 4.48096 20H19.4391C20.2989 20 21 19.3089 21 18.4614V9.3237C21 8.47569 20.2989 7.78471 19.4391 7.78471H4.48096C4.34997 7.78471 4.21884 7.76972 4.09077 7.74112C3.9588 7.71155 3.83436 7.66879 3.71943 7.61461C3.57002 7.54489 3.50641 7.36874 3.57755 7.22161C3.64828 7.07462 3.8274 7.01192 3.97667 7.08204C4.05633 7.11917 4.13892 7.14805 4.22206 7.16661C4.30269 7.18449 4.38946 7.19439 4.48111 7.19439H9.47764L14.2763 4.79432L15.5115 7.19439H18.2743V6.72162C18.2743 5.72499 17.45 4.91203 16.4387 4.91203L15.009 4.91189L15.0092 4.91166Z" fill="white"/>
</svg>
