<svg width="86" height="24" viewBox="0 0 86 24" fill="none" xmlns="http://www.w3.org/2000/svg">
<path d="M11.736 23.32C10.0933 23.32 8.57867 23.0427 7.192 22.488C5.82667 21.912 4.632 21.112 3.608 20.088C2.60533 19.0427 1.82667 17.816 1.272 16.408C0.717333 14.9787 0.44 13.4213 0.44 11.736C0.44 10.0933 0.728 8.57867 1.304 7.192C1.88 5.784 2.69067 4.568 3.736 3.544C4.78133 2.49867 6.008 1.688 7.416 1.112C8.824 0.535999 10.3493 0.247999 11.992 0.247999C13.0587 0.247999 14.104 0.397333 15.128 0.695999C16.1733 0.973333 17.1227 1.38933 17.976 1.944C18.8507 2.49867 19.5973 3.16 20.216 3.928L17.208 7.256C16.696 6.744 16.1627 6.30667 15.608 5.944C15.0747 5.56 14.4987 5.272 13.88 5.08C13.2827 4.86667 12.6427 4.76 11.96 4.76C11.0427 4.76 10.1787 4.93067 9.368 5.272C8.57867 5.61333 7.88533 6.09333 7.288 6.712C6.69067 7.30933 6.21067 8.04533 5.848 8.92C5.50667 9.77333 5.336 10.7227 5.336 11.768C5.336 12.8347 5.50667 13.8053 5.848 14.68C6.18933 15.5333 6.66933 16.2693 7.288 16.888C7.90667 17.4853 8.64267 17.9547 9.496 18.296C10.3707 18.616 11.3307 18.776 12.376 18.776C13.0587 18.776 13.72 18.68 14.36 18.488C15 18.296 15.5867 18.0293 16.12 17.688C16.6747 17.3467 17.1653 16.952 17.592 16.504L19.928 20.248C19.416 20.824 18.7227 21.3467 17.848 21.816C16.9947 22.2853 16.0347 22.6587 14.968 22.936C13.9013 23.192 12.824 23.32 11.736 23.32ZM23.9745 23V0.599998H33.8945C35.2812 0.599998 36.5398 0.919999 37.6705 1.56C38.8012 2.17867 39.6865 3.02133 40.3265 4.088C40.9878 5.15467 41.3185 6.37067 41.3185 7.736C41.3185 9.08 40.9878 10.3067 40.3265 11.416C39.6865 12.504 38.8012 13.368 37.6705 14.008C36.5398 14.648 35.2812 14.968 33.8945 14.968H28.6145V23H23.9745ZM36.6785 23L30.9825 12.888L35.9105 12.088L42.2465 23.032L36.6785 23ZM28.6145 11.064H33.6705C34.2465 11.064 34.7478 10.936 35.1745 10.68C35.6225 10.4027 35.9638 10.0293 36.1985 9.56C36.4332 9.06933 36.5505 8.52533 36.5505 7.928C36.5505 7.288 36.4118 6.73333 36.1345 6.264C35.8572 5.79467 35.4518 5.432 34.9185 5.176C34.3852 4.89867 33.7665 4.76 33.0625 4.76H28.6145V11.064ZM50.643 23V11.832L50.867 13.4L41.811 0.599998H47.347L54.259 10.52L52.083 10.424L58.323 0.599998H63.667L54.995 13.752L55.475 11.576V23H50.643Z" fill="white"/>
<path d="M72.3618 23V11.832L72.5858 13.4L63.5297 0.599998H69.0658L75.9778 10.52L73.8018 10.424L80.0417 0.599998H85.3858L76.7138 13.752L77.1938 11.576V23H72.3618Z" fill="#5AD8D0"/>
</svg>
